<?xml version="1.0" encoding="UTF-8" standalone="no"?>
<svg
   xmlns:dc="http://purl.org/dc/elements/1.1/"
   xmlns:cc="http://creativecommons.org/ns#"
   xmlns:rdf="http://www.w3.org/1999/02/22-rdf-syntax-ns#"
   xmlns:svg="http://www.w3.org/2000/svg"
   xmlns="http://www.w3.org/2000/svg"
   xmlns:sodipodi="http://sodipodi.sourceforge.net/DTD/sodipodi-0.dtd"
   xmlns:inkscape="http://www.inkscape.org/namespaces/inkscape"
   width="130mm"
   height="130mm"
   viewBox="0 0 130 130"
   version="1.1"
   id="svg8"
   sodipodi:docname="taurus_logo_2.svg"
   inkscape:version="1.0 (4035a4fb49, 2020-05-01)"
   inkscape:export-filename="C:\Users\Public\Documents\Unity Projects\TaurusPresentation\Assets\TaurusDungeonGenerator\Logo\taurus_logo.png"
   inkscape:export-xdpi="96"
   inkscape:export-ydpi="96">
  <defs
     id="defs2" />
  <sodipodi:namedview
     id="base"
     pagecolor="#84ff8c"
     bordercolor="#666666"
     borderopacity="1.0"
     inkscape:pageopacity="0"
     inkscape:pageshadow="2"
     inkscape:zoom="1.8758079"
     inkscape:cx="-6.0989745"
     inkscape:cy="209.55504"
     inkscape:document-units="mm"
     inkscape:current-layer="layer1"
     inkscape:document-rotation="0"
     showgrid="false"
     inkscape:window-width="3840"
     inkscape:window-height="2050"
     inkscape:window-x="-12"
     inkscape:window-y="-12"
     inkscape:window-maximized="1"
     fit-margin-top="0"
     fit-margin-left="0"
     fit-margin-right="0"
     fit-margin-bottom="0" />
  <metadata
     id="metadata5">
    <rdf:RDF>
      <cc:Work
         rdf:about="">
        <dc:format>image/svg+xml</dc:format>
        <dc:type
           rdf:resource="http://purl.org/dc/dcmitype/StillImage" />
        <dc:title></dc:title>
      </cc:Work>
    </rdf:RDF>
  </metadata>
  <g
     inkscape:label="Layer 1"
     inkscape:groupmode="layer"
     id="layer1"
     transform="translate(-5,55)">
    <path
       transform="matrix(0.26458333,0,0,0.26458333,5,-55)"
       d="M 411.02148 10.255859 A 165.90467 172.30191 0 0 1 322.36328 149.00586 A 165.90467 172.30191 0 0 1 321.41016 149.51758 A 165.90467 172.30191 0 0 1 320.45312 150.02344 A 165.90467 172.30191 0 0 1 319.49414 150.52148 A 165.90467 172.30191 0 0 1 318.5332 151.01367 A 165.90467 172.30191 0 0 1 317.56836 151.5 A 165.90467 172.30191 0 0 1 316.69727 151.93164 A 165.90467 172.30191 0 0 1 316.59961 151.98047 A 165.90466 172.30191 0 0 1 316.28516 152.13477 A 165.90467 172.30191 0 0 1 315.62891 152.45312 A 165.90466 172.30191 0 0 1 315.3125 152.60547 A 165.90467 172.30191 0 0 1 314.6543 152.91992 A 165.90466 172.30191 0 0 1 314.58008 152.95508 A 165.90467 172.30191 0 0 1 313.76562 153.33789 A 165.90467 172.30191 0 0 1 313.67773 153.37891 A 165.90466 172.30191 0 0 1 313.35938 153.52734 A 165.90467 172.30191 0 0 1 312.69727 153.83203 A 165.90467 172.30191 0 0 1 311.71484 154.2793 A 165.90467 172.30191 0 0 1 310.87695 154.6543 A 165.90467 172.30191 0 0 1 310.72852 154.7207 A 165.90466 172.30191 0 0 1 310.41016 154.86133 A 165.90467 172.30191 0 0 1 309.74023 155.1543 A 165.90466 172.30191 0 0 1 309.41992 155.29297 A 165.90467 172.30191 0 0 1 308.75 155.58008 A 165.90467 172.30191 0 0 1 304.75977 157.2207 A 165.90467 172.30191 0 0 1 303.75781 157.61523 A 165.90466 172.30191 0 0 1 303.66797 157.65039 A 165.90467 172.30191 0 0 1 302.75195 158.00195 A 165.90467 172.30191 0 0 1 301.74219 158.38086 A 165.90467 172.30191 0 0 1 300.73242 158.75391 A 165.90467 172.30191 0 0 1 299.82422 159.08203 A 165.90467 172.30191 0 0 1 299.71875 159.12109 A 165.90466 172.30191 0 0 1 299.62891 159.15234 A 165.90467 172.30191 0 0 1 298.70312 159.48047 A 165.90466 172.30191 0 0 1 298.65039 159.49805 A 165.90467 172.30191 0 0 1 297.68555 159.83398 A 165.90466 172.30191 0 0 1 297.5918 159.86523 A 165.90467 172.30191 0 0 1 296.66602 160.17969 A 165.90467 172.30191 0 0 1 295.64453 160.51758 A 165.90467 172.30191 0 0 1 294.62109 160.84961 A 165.90467 172.30191 0 0 1 293.59375 161.17578 A 165.90467 172.30191 0 0 1 292.58398 161.48828 A 165.90467 172.30191 0 0 1 292.56641 161.49414 A 165.90466 172.30191 0 0 1 292.55078 161.49805 A 165.90467 172.30191 0 0 1 291.53711 161.80469 A 165.90467 172.30191 0 0 1 290.50391 162.10938 A 165.90467 172.30191 0 0 1 289.4707 162.4082 A 165.90466 172.30191 0 0 1 289.4375 162.41797 A 165.90467 172.30191 0 0 1 288.43555 162.69727 A 165.90467 172.30191 0 0 1 287.73242 162.89062 A 165.90466 172.30191 0 0 1 287.19336 163.03711 A 165.90467 172.30191 0 0 1 286.35938 163.25781 A 165.90467 172.30191 0 0 1 285.5625 163.4668 A 165.90467 172.30191 0 0 1 285.31836 163.5293 A 165.90466 172.30191 0 0 1 284.98047 163.61523 A 165.90467 172.30191 0 0 1 284.27539 163.79102 A 165.90466 172.30191 0 0 1 284.23047 163.80273 A 165.90467 172.30191 0 0 1 283.23242 164.04688 A 165.90466 172.30191 0 0 1 283.14258 164.06836 A 165.90467 172.30191 0 0 1 282.18555 164.29492 A 165.90467 172.30191 0 0 1 281.13867 164.53711 A 165.90467 172.30191 0 0 1 280.08984 164.77148 A 165.90467 172.30191 0 0 1 279.23438 164.95703 A 165.90467 172.30191 0 0 1 279.04102 165 A 165.90466 172.30191 0 0 1 278.84766 165.04102 A 165.90467 172.30191 0 0 1 277.98828 165.2207 A 165.90466 172.30191 0 0 1 277.91602 165.23633 A 165.90467 172.30191 0 0 1 276.93555 165.43359 A 165.90467 172.30191 0 0 1 275.88086 165.64062 A 165.90467 172.30191 0 0 1 274.99414 165.80859 A 165.90467 172.30191 0 0 1 274.82617 165.83984 A 165.90466 172.30191 0 0 1 274.64258 165.87305 A 165.90467 172.30191 0 0 1 273.76953 166.03125 A 165.90467 172.30191 0 0 1 272.72656 166.21484 A 165.90467 172.30191 0 0 1 272.71094 166.2168 A 165.90466 172.30191 0 0 1 272.69531 166.21875 A 165.90467 172.30191 0 0 1 271.71484 166.38477 A 165.90467 172.30191 0 0 1 271.65234 166.39453 A 165.90466 172.30191 0 0 1 271.62109 166.40039 A 165.90467 172.30191 0 0 1 270.77539 166.53711 A 165.90467 172.30191 0 0 1 270.59375 166.56641 A 165.90466 172.30191 0 0 1 270.52734 166.57617 A 165.90467 172.30191 0 0 1 269.8125 166.6875 A 165.90467 172.30191 0 0 1 269.53125 166.73047 A 165.90466 172.30191 0 0 1 269.25 166.77148 A 165.90467 172.30191 0 0 1 268.46875 166.88672 A 165.90466 172.30191 0 0 1 268.27148 166.91406 A 165.90467 172.30191 0 0 1 267.40625 167.03516 A 165.90467 172.30191 0 0 1 266.37305 167.17383 A 165.90467 172.30191 0 0 1 266.34375 167.17773 A 165.90466 172.30191 0 0 1 266.28906 167.18555 A 165.90467 172.30191 0 0 1 265.82227 167.24414 A 165.90466 172.30191 0 0 1 264.9375 167.35547 A 165.90466 172.30191 0 0 1 264.93359 167.35547 A 165.90467 172.30191 0 0 1 264.21289 167.44141 A 165.90466 172.30191 0 0 1 264.1875 167.44336 A 165.90467 172.30191 0 0 1 263.14648 167.5625 A 165.90467 172.30191 0 0 1 261.10938 167.77344 A 165.90467 172.30191 0 0 1 261.01172 167.7832 A 165.90466 172.30191 0 0 1 260.91992 167.79102 A 165.90467 172.30191 0 0 1 259.94336 167.88281 A 165.90466 172.30191 0 0 1 259.88086 167.88867 A 165.90467 172.30191 0 0 1 258.87305 167.97461 A 165.90467 172.30191 0 0 1 258.13477 168.0332 A 165.90466 172.30191 0 0 1 257.46094 168.08594 A 165.90466 172.30191 0 0 1 257.45703 168.08594 A 165.90467 172.30191 0 0 1 257.44922 168.08594 A 165.90466 172.30191 0 0 1 256.49609 168.1543 A 165.90467 172.30191 0 0 1 255.66406 168.20898 A 165.90466 172.30191 0 0 1 255.53516 168.2168 A 165.90467 172.30191 0 0 1 254.60547 168.27148 A 165.90467 172.30191 0 0 1 254.5918 168.27148 A 165.90466 172.30191 0 0 1 254.58594 168.27148 A 165.90467 172.30191 0 0 1 253.60156 168.32422 A 165.90467 172.30191 0 0 1 253.52148 168.32812 A 165.90466 172.30191 0 0 1 253.49414 168.33008 A 165.90467 172.30191 0 0 1 252.44922 168.37695 A 165.90467 172.30191 0 0 1 251.62891 168.41016 A 165.90467 172.30191 0 0 1 251.37695 168.41992 A 165.90466 172.30191 0 0 1 251.13477 168.42773 A 165.90467 172.30191 0 0 1 250.30469 168.45508 A 165.90466 172.30191 0 0 1 249.95898 168.46484 A 165.90467 172.30191 0 0 1 249.69922 168.4707 A 165.90466 172.30191 0 0 1 248.88672 168.48828 A 165.90467 172.30191 0 0 1 248.16016 168.50195 A 165.90466 172.30191 0 0 1 248.07422 168.50391 A 165.90467 172.30191 0 0 1 247.42188 168.51172 A 165.90466 172.30191 0 0 1 246.75391 168.51758 A 165.90466 172.30191 0 0 1 246.74023 168.51758 A 165.90467 172.30191 0 0 1 246.71094 168.51758 A 165.90466 172.30191 0 0 1 245.66797 168.52148 A 165.90467 172.30191 0 0 1 242.44922 168.48828 A 165.90467 172.30191 0 0 1 240.30469 168.43164 A 165.90467 172.30191 0 0 1 234.94727 168.16211 A 165.90466 172.30191 0 0 1 233.87891 168.08594 A 165.90467 172.30191 0 0 1 232.80859 168.00391 A 165.90467 172.30191 0 0 1 230.66992 167.81641 A 165.90467 172.30191 0 0 1 214.74023 165.50195 A 165.90467 172.30191 0 0 1 212.63672 165.07227 A 165.90467 172.30191 0 0 1 209.48828 164.375 A 165.90467 172.30191 0 0 1 207.39844 163.875 A 165.90467 172.30191 0 0 1 204.27344 163.07227 A 165.90467 172.30191 0 0 1 198.07422 161.2793 A 165.90467 172.30191 0 0 1 195 160.28906 A 165.90467 172.30191 0 0 1 191.94531 159.23828 A 165.90467 172.30191 0 0 1 188.91016 158.125 A 165.90467 172.30191 0 0 1 182.90625 155.7168 A 165.90467 172.30191 0 0 1 174.08203 151.65625 A 165.90467 172.30191 0 0 1 172.15234 150.68164 A 165.90467 172.30191 0 0 1 170.23438 149.68164 A 165.90467 172.30191 0 0 1 169.28125 149.17188 A 165.90467 172.30191 0 0 1 167.38477 148.13477 A 165.90467 172.30191 0 0 1 80.316406 10.259766 C 77.235672 22.994564 75.589751 36.280478 75.589844 49.945312 C 75.59019 98.985793 96.601072 143.32194 130.06055 174.42773 C 96.60378 205.41436 75.589513 249.60855 75.589844 298.61914 C 75.590509 392.20829 152.08077 468.69853 245.66992 468.69922 C 339.26 468.69986 415.74737 392.20922 415.74805 298.61914 C 415.74837 249.60736 394.73558 205.41553 361.2793 174.42969 C 394.73787 143.32389 415.74769 98.986048 415.74805 49.945312 C 415.74814 36.278945 414.10271 22.991872 411.02148 10.255859 z M 180.4043 206.93555 C 200.5244 215.35904 222.57482 220.02522 245.66992 220.02539 C 268.76441 220.02556 290.81422 215.36028 310.93359 206.9375 C 339.5115 227.24028 358.03737 260.62428 358.03711 298.61914 C 358.03666 361.01798 308.06877 410.97895 245.66992 410.97852 C 183.27172 410.97806 133.30318 361.01735 133.30273 298.61914 C 133.30248 260.6244 151.82681 227.23841 180.4043 206.93555 z "
       style="color:#000000;font-style:normal;font-variant:normal;font-weight:normal;font-stretch:normal;font-size:medium;line-height:normal;font-family:sans-serif;font-variant-ligatures:normal;font-variant-position:normal;font-variant-caps:normal;font-variant-numeric:normal;font-variant-alternates:normal;font-variant-east-asian:normal;font-feature-settings:normal;font-variation-settings:normal;text-indent:0;text-align:start;text-decoration:none;text-decoration-line:none;text-decoration-style:solid;text-decoration-color:#000000;letter-spacing:normal;word-spacing:normal;text-transform:none;writing-mode:lr-tb;direction:ltr;text-orientation:mixed;dominant-baseline:auto;baseline-shift:baseline;text-anchor:start;white-space:normal;shape-padding:0;shape-margin:0;inline-size:0;clip-rule:nonzero;display:inline;overflow:visible;visibility:visible;opacity:1;isolation:auto;mix-blend-mode:normal;color-interpolation:sRGB;color-interpolation-filters:linearRGB;solid-color:#000000;solid-opacity:1;vector-effect:none;fill:#ec2b35;fill-opacity:1;fill-rule:nonzero;stroke:none;stroke-width:57.7145;stroke-linecap:round;stroke-linejoin:round;stroke-miterlimit:4;stroke-dasharray:none;stroke-dashoffset:0;stroke-opacity:1;color-rendering:auto;image-rendering:auto;shape-rendering:auto;text-rendering:auto;enable-background:accumulate;stop-color:#000000;stop-opacity:1"
       id="path877" />
  </g>
</svg>
