<?xml version="1.0" encoding="UTF-8" standalone="no"?>
<svg
   xmlns:dc="http://purl.org/dc/elements/1.1/"
   xmlns:cc="http://creativecommons.org/ns#"
   xmlns:rdf="http://www.w3.org/1999/02/22-rdf-syntax-ns#"
   xmlns:svg="http://www.w3.org/2000/svg"
   xmlns="http://www.w3.org/2000/svg"
   xmlns:sodipodi="http://sodipodi.sourceforge.net/DTD/sodipodi-0.dtd"
   xmlns:inkscape="http://www.inkscape.org/namespaces/inkscape"
   inkscape:export-ydpi="96"
   inkscape:export-xdpi="96"
   inkscape:export-filename="C:\Users\Public\Documents\Unity Projects\TaurusPresentation\Assets\TaurusDungeonGenerator\Logo\taurus_logo.png"
   inkscape:version="1.0 (4035a4fb49, 2020-05-01)"
   sodipodi:docname="taurus_logo.svg"
   id="svg8"
   version="1.1"
   viewBox="0 0 130 130"
   height="130mm"
   width="130mm">
  <defs
     id="defs2" />
  <sodipodi:namedview
     fit-margin-bottom="0"
     fit-margin-right="0"
     fit-margin-left="0"
     fit-margin-top="0"
     inkscape:window-maximized="1"
     inkscape:window-y="-12"
     inkscape:window-x="-12"
     inkscape:window-height="2050"
     inkscape:window-width="3840"
     showgrid="false"
     inkscape:document-rotation="0"
     inkscape:current-layer="layer1"
     inkscape:document-units="mm"
     inkscape:cy="209.55504"
     inkscape:cx="-6.0989745"
     inkscape:zoom="1.8758079"
     inkscape:pageshadow="2"
     inkscape:pageopacity="1"
     borderopacity="1.0"
     bordercolor="#666666"
     pagecolor="#ffffff"
     id="base" />
  <metadata
     id="metadata5">
    <rdf:RDF>
      <cc:Work
         rdf:about="">
        <dc:format>image/svg+xml</dc:format>
        <dc:type
           rdf:resource="http://purl.org/dc/dcmitype/StillImage" />
        <dc:title></dc:title>
      </cc:Work>
    </rdf:RDF>
  </metadata>
  <g
     transform="translate(-5,55)"
     id="layer1"
     inkscape:groupmode="layer"
     inkscape:label="Layer 1">
    <g
       transform="matrix(1.0180201,0,0,1.0180201,-25.901005,-118.13938)"
       id="g870">
      <path
         id="path833"
         style="fill:none;stroke:#ec2b35;stroke-width:15;stroke-linecap:round;stroke-linejoin:round;stroke-miterlimit:4;stroke-dasharray:none;stroke-opacity:1;stop-color:#000000"
         d="M 94.199568,102.92912 A 36.703452,36.703452 0 0 0 57.5,139.63282 a 36.703452,36.703452 0 0 0 36.703185,36.70319 36.703452,36.703452 0 0 0 36.703705,-36.70319 36.703452,36.703452 0 0 0 -36.703705,-36.7037 36.703452,36.703452 0 0 0 -0.0036,0 z" />
      <path
         d="M 94.199566,38.299266 A 36.703452,36.703452 0 0 0 57.5,75.002968 36.703452,36.703452 0 0 0 94.203186,111.70616 36.703452,36.703452 0 0 0 130.9069,75.002968 36.703452,36.703452 0 0 0 94.203186,38.299266 a 36.703452,36.703452 0 0 0 -0.004,0 z"
         style="fill:none;stroke:#ec2b35;stroke-width:15;stroke-linecap:round;stroke-linejoin:round;stroke-miterlimit:4;stroke-dasharray:none;stroke-opacity:1;stop-color:#000000"
         id="path833-5" />
      <path
         id="path833-5-4"
         style="fill:#ffffff;stroke:#ffffff;stroke-width:15;stroke-linecap:round;stroke-linejoin:round;stroke-miterlimit:4;stroke-dasharray:none;stroke-opacity:1;stop-color:#000000"
         d="M 94.19957,24.335992 A 36.703452,36.703452 0 0 0 57.5,61.039694 36.703452,36.703452 0 0 0 94.20318,97.74289 36.703452,36.703452 0 0 0 130.9069,61.039694 36.703452,36.703452 0 0 0 94.20318,24.335992 a 36.703452,36.703452 0 0 0 -0.004,0 z" />
    </g>
  </g>
</svg>
