<?xml version="1.0" encoding="UTF-8" standalone="no"?>
<svg
   xmlns:dc="http://purl.org/dc/elements/1.1/"
   xmlns:cc="http://creativecommons.org/ns#"
   xmlns:rdf="http://www.w3.org/1999/02/22-rdf-syntax-ns#"
   xmlns:svg="http://www.w3.org/2000/svg"
   xmlns="http://www.w3.org/2000/svg"
   xmlns:sodipodi="http://sodipodi.sourceforge.net/DTD/sodipodi-0.dtd"
   xmlns:inkscape="http://www.inkscape.org/namespaces/inkscape"
   width="196.92348mm"
   height="163.40221mm"
   viewBox="0 0 196.92348 163.40221"
   version="1.1"
   id="svg8"
   sodipodi:docname="taurus_logo_and_text.svg"
   inkscape:version="1.0 (4035a4fb49, 2020-05-01)"
   inkscape:export-filename="C:\Users\Public\Documents\Unity Projects\TaurusPresentation\Assets\TaurusDungeonGenerator\Logo\taurus_logo_text.png"
   inkscape:export-xdpi="264.15945"
   inkscape:export-ydpi="264.15945">
  <defs
     id="defs2" />
  <sodipodi:namedview
     inkscape:snap-object-midpoints="true"
     inkscape:snap-bbox-midpoints="true"
     inkscape:snap-bbox="true"
     id="base"
     pagecolor="#c0ffc4"
     bordercolor="#666666"
     borderopacity="1.0"
     inkscape:pageopacity="0"
     inkscape:pageshadow="2"
     inkscape:zoom="1.8758079"
     inkscape:cx="380.93988"
     inkscape:cy="314.79306"
     inkscape:document-units="mm"
     inkscape:current-layer="layer1"
     inkscape:document-rotation="0"
     showgrid="false"
     inkscape:window-width="3840"
     inkscape:window-height="2050"
     inkscape:window-x="-12"
     inkscape:window-y="-12"
     inkscape:window-maximized="1"
     fit-margin-top="0"
     fit-margin-left="0"
     fit-margin-right="0"
     fit-margin-bottom="0" />
  <metadata
     id="metadata5">
    <rdf:RDF>
      <cc:Work
         rdf:about="">
        <dc:format>image/svg+xml</dc:format>
        <dc:type
           rdf:resource="http://purl.org/dc/dcmitype/StillImage" />
        <dc:title></dc:title>
      </cc:Work>
    </rdf:RDF>
  </metadata>
  <g
     inkscape:label="Layer 1"
     inkscape:groupmode="layer"
     id="layer1"
     transform="translate(28.461831,52.286471)">
    <path
       transform="matrix(0.26458333,0,0,0.26458333,5,-55)"
       d="m 411.02148,10.255859 a 165.90467,172.30191 0 0 1 -88.6582,138.750001 165.90467,172.30191 0 0 1 -0.95312,0.51172 165.90467,172.30191 0 0 1 -0.95704,0.50586 165.90467,172.30191 0 0 1 -0.95898,0.49804 165.90467,172.30191 0 0 1 -0.96094,0.49219 165.90467,172.30191 0 0 1 -0.96484,0.48633 165.90467,172.30191 0 0 1 -0.87109,0.43164 165.90467,172.30191 0 0 1 -0.0977,0.0488 165.90466,172.30191 0 0 1 -0.31445,0.1543 165.90467,172.30191 0 0 1 -0.65625,0.31835 165.90466,172.30191 0 0 1 -0.31641,0.15235 165.90467,172.30191 0 0 1 -0.6582,0.31445 165.90466,172.30191 0 0 1 -0.0742,0.0352 165.90467,172.30191 0 0 1 -0.81446,0.38281 165.90467,172.30191 0 0 1 -0.0879,0.041 165.90466,172.30191 0 0 1 -0.31835,0.14843 165.90467,172.30191 0 0 1 -0.66211,0.30469 165.90467,172.30191 0 0 1 -0.98243,0.44727 165.90467,172.30191 0 0 1 -0.83789,0.375 165.90467,172.30191 0 0 1 -0.14843,0.0664 165.90466,172.30191 0 0 1 -0.31836,0.14063 165.90467,172.30191 0 0 1 -0.66993,0.29297 165.90466,172.30191 0 0 1 -0.32031,0.13867 165.90467,172.30191 0 0 1 -0.66992,0.28711 165.90467,172.30191 0 0 1 -3.99023,1.64062 165.90467,172.30191 0 0 1 -1.00196,0.39453 165.90466,172.30191 0 0 1 -0.0898,0.0352 165.90467,172.30191 0 0 1 -0.91602,0.35156 165.90467,172.30191 0 0 1 -1.00976,0.37891 165.90467,172.30191 0 0 1 -1.00977,0.37305 165.90467,172.30191 0 0 1 -0.9082,0.32812 165.90467,172.30191 0 0 1 -0.10547,0.0391 165.90466,172.30191 0 0 1 -0.0898,0.0312 165.90467,172.30191 0 0 1 -0.92579,0.32813 165.90466,172.30191 0 0 1 -0.0527,0.0176 165.90467,172.30191 0 0 1 -0.96484,0.33593 165.90466,172.30191 0 0 1 -0.0937,0.0312 165.90467,172.30191 0 0 1 -0.92578,0.31446 165.90467,172.30191 0 0 1 -1.02149,0.33789 165.90467,172.30191 0 0 1 -1.02344,0.33203 165.90467,172.30191 0 0 1 -1.02734,0.32617 165.90467,172.30191 0 0 1 -1.00977,0.3125 165.90467,172.30191 0 0 1 -0.0176,0.006 165.90466,172.30191 0 0 1 -0.0156,0.004 165.90467,172.30191 0 0 1 -1.01367,0.30664 165.90467,172.30191 0 0 1 -1.0332,0.30469 165.90467,172.30191 0 0 1 -1.03321,0.29882 165.90466,172.30191 0 0 1 -0.0332,0.01 165.90467,172.30191 0 0 1 -1.00195,0.2793 165.90467,172.30191 0 0 1 -0.70313,0.19335 165.90466,172.30191 0 0 1 -0.53906,0.14649 165.90467,172.30191 0 0 1 -0.83398,0.2207 165.90467,172.30191 0 0 1 -0.79688,0.20899 165.90467,172.30191 0 0 1 -0.24414,0.0625 165.90466,172.30191 0 0 1 -0.33789,0.0859 165.90467,172.30191 0 0 1 -0.70508,0.17579 165.90466,172.30191 0 0 1 -0.0449,0.0117 165.90467,172.30191 0 0 1 -0.99805,0.24415 165.90466,172.30191 0 0 1 -0.0898,0.0215 165.90467,172.30191 0 0 1 -0.95703,0.22656 165.90467,172.30191 0 0 1 -1.04688,0.24219 165.90467,172.30191 0 0 1 -1.04883,0.23437 165.90467,172.30191 0 0 1 -0.85546,0.18555 165.90467,172.30191 0 0 1 -0.19336,0.043 165.90466,172.30191 0 0 1 -0.19336,0.041 165.90467,172.30191 0 0 1 -0.85938,0.17968 165.90466,172.30191 0 0 1 -0.0723,0.0156 165.90467,172.30191 0 0 1 -0.98047,0.19726 165.90467,172.30191 0 0 1 -1.05469,0.20703 165.90467,172.30191 0 0 1 -0.88672,0.16797 165.90467,172.30191 0 0 1 -0.16797,0.0312 165.90466,172.30191 0 0 1 -0.18359,0.0332 165.90467,172.30191 0 0 1 -0.87305,0.1582 165.90467,172.30191 0 0 1 -1.04297,0.18359 165.90467,172.30191 0 0 1 -0.0156,0.002 165.90466,172.30191 0 0 1 -0.0156,0.002 165.90467,172.30191 0 0 1 -0.98047,0.16602 165.90467,172.30191 0 0 1 -0.0625,0.01 165.90466,172.30191 0 0 1 -0.0312,0.006 165.90467,172.30191 0 0 1 -0.8457,0.13672 165.90467,172.30191 0 0 1 -0.18164,0.0293 165.90466,172.30191 0 0 1 -0.0664,0.01 165.90467,172.30191 0 0 1 -0.71484,0.11133 165.90467,172.30191 0 0 1 -0.28125,0.043 165.90466,172.30191 0 0 1 -0.28125,0.041 165.90467,172.30191 0 0 1 -0.78125,0.11524 165.90466,172.30191 0 0 1 -0.19727,0.0273 165.90467,172.30191 0 0 1 -0.86523,0.1211 165.90467,172.30191 0 0 1 -1.0332,0.13867 165.90467,172.30191 0 0 1 -0.0293,0.004 165.90466,172.30191 0 0 1 -0.0547,0.008 165.90467,172.30191 0 0 1 -0.46679,0.0586 165.90466,172.30191 0 0 1 -0.88477,0.11133 165.90466,172.30191 0 0 1 -0.004,0 165.90467,172.30191 0 0 1 -0.7207,0.0859 165.90466,172.30191 0 0 1 -0.0254,0.002 165.90467,172.30191 0 0 1 -1.04102,0.11914 165.90467,172.30191 0 0 1 -2.0371,0.21094 165.90467,172.30191 0 0 1 -0.0977,0.01 165.90466,172.30191 0 0 1 -0.0918,0.008 165.90467,172.30191 0 0 1 -0.97656,0.0918 165.90466,172.30191 0 0 1 -0.0625,0.006 165.90467,172.30191 0 0 1 -1.00781,0.0859 165.90467,172.30191 0 0 1 -0.73828,0.0586 165.90466,172.30191 0 0 1 -0.67383,0.0527 165.90466,172.30191 0 0 1 -0.004,0 165.90467,172.30191 0 0 1 -0.008,0 165.90466,172.30191 0 0 1 -0.95313,0.0684 165.90467,172.30191 0 0 1 -0.83203,0.0547 165.90466,172.30191 0 0 1 -0.1289,0.008 165.90467,172.30191 0 0 1 -0.92969,0.0547 165.90467,172.30191 0 0 1 -0.0137,0 165.90466,172.30191 0 0 1 -0.006,0 165.90467,172.30191 0 0 1 -0.98438,0.0527 165.90467,172.30191 0 0 1 -0.0801,0.004 165.90466,172.30191 0 0 1 -0.0273,0.002 165.90467,172.30191 0 0 1 -1.04492,0.0469 165.90467,172.30191 0 0 1 -0.82031,0.0332 165.90467,172.30191 0 0 1 -0.25196,0.01 165.90466,172.30191 0 0 1 -0.24218,0.008 165.90467,172.30191 0 0 1 -0.83008,0.0274 165.90466,172.30191 0 0 1 -0.34571,0.01 165.90467,172.30191 0 0 1 -0.25976,0.006 165.90466,172.30191 0 0 1 -0.8125,0.0176 165.90467,172.30191 0 0 1 -0.72656,0.0137 165.90466,172.30191 0 0 1 -0.0859,0.002 165.90467,172.30191 0 0 1 -0.65234,0.008 165.90466,172.30191 0 0 1 -0.66797,0.006 165.90466,172.30191 0 0 1 -0.0137,0 165.90467,172.30191 0 0 1 -0.0293,0 165.90466,172.30191 0 0 1 -1.04297,0.004 165.90467,172.30191 0 0 1 -3.21875,-0.0332 165.90467,172.30191 0 0 1 -2.14453,-0.0566 165.90467,172.30191 0 0 1 -5.35742,-0.26953 165.90466,172.30191 0 0 1 -1.06836,-0.0762 165.90467,172.30191 0 0 1 -1.07032,-0.082 165.90467,172.30191 0 0 1 -2.13867,-0.1875 165.90467,172.30191 0 0 1 -15.92969,-2.31446 165.90467,172.30191 0 0 1 -2.10351,-0.42968 165.90467,172.30191 0 0 1 -3.14844,-0.69727 165.90467,172.30191 0 0 1 -2.08984,-0.5 165.90467,172.30191 0 0 1 -3.125,-0.80273 165.90467,172.30191 0 0 1 -6.19922,-1.79297 165.90467,172.30191 0 0 1 -3.07422,-0.99024 165.90467,172.30191 0 0 1 -3.05469,-1.05078 165.90467,172.30191 0 0 1 -3.03515,-1.11328 165.90467,172.30191 0 0 1 -6.00391,-2.4082 165.90467,172.30191 0 0 1 -8.82422,-4.06055 165.90467,172.30191 0 0 1 -1.92969,-0.97461 165.90467,172.30191 0 0 1 -1.91796,-1 165.90467,172.30191 0 0 1 -0.95313,-0.50976 165.90467,172.30191 0 0 1 -1.89648,-1.03711 A 165.90467,172.30191 0 0 1 80.316406,10.259766 c -3.080734,12.734798 -4.726655,26.020712 -4.726562,39.685546 3.46e-4,49.040481 21.011228,93.376628 54.470706,124.482418 -33.45677,30.98663 -54.471037,75.18082 -54.470706,124.19141 6.65e-4,93.58915 76.490926,170.07939 170.080076,170.08008 93.59008,6.4e-4 170.07745,-76.49 170.07813,-170.08008 3.2e-4,-49.01178 -21.01247,-93.20361 -54.46875,-124.18945 33.45857,-31.1058 54.46839,-75.443642 54.46875,-124.484378 9e-5,-13.666367 -1.64534,-26.95344 -4.72657,-39.689453 z M 180.4043,206.93555 c 20.1201,8.42349 42.17052,13.08967 65.26562,13.08984 23.09449,1.7e-4 45.1443,-4.66511 65.26367,-13.08789 28.57791,20.30278 47.10378,53.68678 47.10352,91.68164 -4.5e-4,62.39884 -49.96834,112.35981 -112.36719,112.35938 -62.3982,-4.6e-4 -112.36674,-49.96117 -112.36719,-112.35938 -2.5e-4,-37.99474 18.52408,-71.38073 47.10157,-91.68359 z"
       style="color:#000000;font-style:normal;font-variant:normal;font-weight:normal;font-stretch:normal;font-size:medium;line-height:normal;font-family:sans-serif;font-variant-ligatures:normal;font-variant-position:normal;font-variant-caps:normal;font-variant-numeric:normal;font-variant-alternates:normal;font-variant-east-asian:normal;font-feature-settings:normal;font-variation-settings:normal;text-indent:0;text-align:start;text-decoration:none;text-decoration-line:none;text-decoration-style:solid;text-decoration-color:#000000;letter-spacing:normal;word-spacing:normal;text-transform:none;writing-mode:lr-tb;direction:ltr;text-orientation:mixed;dominant-baseline:auto;baseline-shift:baseline;text-anchor:start;white-space:normal;shape-padding:0;shape-margin:0;inline-size:0;clip-rule:nonzero;display:inline;overflow:visible;visibility:visible;opacity:1;isolation:auto;mix-blend-mode:normal;color-interpolation:sRGB;color-interpolation-filters:linearRGB;solid-color:#000000;solid-opacity:1;vector-effect:none;fill:#ec2b35;fill-opacity:1;fill-rule:nonzero;stroke:none;stroke-width:57.7145;stroke-linecap:round;stroke-linejoin:round;stroke-miterlimit:4;stroke-dasharray:none;stroke-dashoffset:0;stroke-opacity:1;color-rendering:auto;image-rendering:auto;shape-rendering:auto;text-rendering:auto;enable-background:accumulate;stop-color:#000000;stop-opacity:1"
       id="path877" />
    <text
       id="text932"
       y="91.974464"
       x="69.329491"
       style="font-style:normal;font-variant:normal;font-weight:normal;font-stretch:normal;font-size:19.7556px;line-height:0.95;font-family:Ebrima;-inkscape-font-specification:Ebrima;letter-spacing:0px;fill:#ec2b35;fill-opacity:1;stroke:#ec2b35;stroke-width:0.264583;stroke-opacity:1"
       xml:space="preserve"><tspan
         rotate="0 0 0 0 0 0 0"
         style="font-style:normal;font-variant:normal;font-weight:bold;font-stretch:normal;font-size:19.7556px;font-family:Arial;-inkscape-font-specification:'Arial Bold';font-variant-ligatures:normal;font-variant-position:normal;font-variant-caps:small-caps;font-variant-numeric:normal;font-variant-east-asian:normal;text-align:center;writing-mode:lr-tb;direction:ltr;text-anchor:middle;fill:#ec2b35;fill-opacity:1;stroke:#ec2b35;stroke-width:0.264583;stroke-opacity:1"
         y="91.974464"
         x="69.329491"
         id="tspan930"
         sodipodi:role="line">Taurus</tspan><tspan
         rotate="0 0 0 0 0 0 0 0 0 0 0 0 0 0 0 0 0 0"
         id="tspan934"
         style="font-style:normal;font-variant:normal;font-weight:normal;font-stretch:normal;font-size:19.7556px;font-family:Arial;-inkscape-font-specification:Arial;font-variant-ligatures:normal;font-variant-position:normal;font-variant-caps:small-caps;font-variant-numeric:normal;font-variant-east-asian:normal;text-align:center;writing-mode:lr-tb;direction:ltr;text-anchor:middle;fill:#ec2b35;fill-opacity:1;stroke:#ec2b35;stroke-width:0.264583;stroke-opacity:1"
         y="110.74229"
         x="69.329491"
         sodipodi:role="line">Dungeon Generator</tspan></text>
  </g>
</svg>
